<svg xmlns="http://www.w3.org/2000/svg" viewBox="0 0 100 100">
  <rect width="100" height="100" rx="18" fill="#0f172a"/>
  <!-- Row 1: 5 keys -->
  <rect x="10" y="22" width="13" height="13" rx="3" fill="#334155" stroke="#475569" stroke-width="1"/>
  <rect x="26" y="22" width="13" height="13" rx="3" fill="#334155" stroke="#475569" stroke-width="1"/>
  <rect x="42" y="22" width="13" height="13" rx="3" fill="#3b82f6" stroke="#60a5fa" stroke-width="1"/>
  <rect x="58" y="22" width="13" height="13" rx="3" fill="#334155" stroke="#475569" stroke-width="1"/>
  <rect x="74" y="22" width="13" height="13" rx="3" fill="#334155" stroke="#475569" stroke-width="1"/>
  <!-- Row 2: 5 keys -->
  <rect x="10" y="40" width="13" height="13" rx="3" fill="#334155" stroke="#475569" stroke-width="1"/>
  <rect x="26" y="40" width="13" height="13" rx="3" fill="#334155" stroke="#475569" stroke-width="1"/>
  <rect x="42" y="40" width="13" height="13" rx="3" fill="#334155" stroke="#475569" stroke-width="1"/>
  <rect x="58" y="40" width="13" height="13" rx="3" fill="#334155" stroke="#475569" stroke-width="1"/>
  <rect x="74" y="40" width="13" height="13" rx="3" fill="#334155" stroke="#475569" stroke-width="1"/>
  <!-- Row 3: spacebar + key -->
  <rect x="10" y="58" width="42" height="13" rx="3" fill="#1e40af" stroke="#3b82f6" stroke-width="1"/>
  <rect x="58" y="58" width="29" height="13" rx="3" fill="#334155" stroke="#475569" stroke-width="1"/>
</svg>
